<?xml version="1.0" standalone="no"?>
<svg viewBox="0 0 200 200" xmlns="http://www.w3.org/2000/svg">
  <path fill="#A7F0BA" d="M33.5,-58.4C43.9,-52,53.2,-44,48.5,-34.1C43.8,-24.1,25.1,-12,19.4,-3.3C13.8,5.5,21.2,11,21.8,13.9C22.4,16.8,16.2,17.1,11.4,23.2C6.7,29.3,3.3,41.2,1.2,39.1C-0.9,36.9,-1.7,20.7,-8.1,15.5C-14.4,10.3,-26.2,16.2,-40.8,15.4C-55.4,14.6,-72.8,7.3,-68.9,2.2C-65,-2.9,-39.9,-5.7,-30.1,-14.7C-20.2,-23.6,-25.6,-38.7,-23.1,-49.7C-20.7,-60.7,-10.3,-67.7,0.6,-68.7C11.5,-69.7,23,-64.8,33.5,-58.4Z" transform="translate(100 100)" />
</svg>
