<svg id="visual" viewBox="0 0 900 600" width="900" height="600" xmlns="http://www.w3.org/2000/svg" xmlns:xlink="http://www.w3.org/1999/xlink" version="1.1"><rect x="0" y="0" width="900" height="600" fill="#ffffff"></rect><defs><linearGradient id="grad1_0" x1="33.3%" y1="0%" x2="100%" y2="100%"><stop offset="20%" stop-color="#fbae3c" stop-opacity="1"></stop><stop offset="80%" stop-color="#fbae3c" stop-opacity="1"></stop></linearGradient></defs><defs><linearGradient id="grad1_1" x1="33.3%" y1="0%" x2="100%" y2="100%"><stop offset="20%" stop-color="#fbae3c" stop-opacity="1"></stop><stop offset="80%" stop-color="#ffc880" stop-opacity="1"></stop></linearGradient></defs><defs><linearGradient id="grad1_2" x1="33.3%" y1="0%" x2="100%" y2="100%"><stop offset="20%" stop-color="#ffe3bf" stop-opacity="1"></stop><stop offset="80%" stop-color="#ffc880" stop-opacity="1"></stop></linearGradient></defs><defs><linearGradient id="grad1_3" x1="33.3%" y1="0%" x2="100%" y2="100%"><stop offset="20%" stop-color="#ffe3bf" stop-opacity="1"></stop><stop offset="80%" stop-color="#ffffff" stop-opacity="1"></stop></linearGradient></defs><defs><linearGradient id="grad2_0" x1="0%" y1="0%" x2="66.7%" y2="100%"><stop offset="20%" stop-color="#fbae3c" stop-opacity="1"></stop><stop offset="80%" stop-color="#fbae3c" stop-opacity="1"></stop></linearGradient></defs><defs><linearGradient id="grad2_1" x1="0%" y1="0%" x2="66.7%" y2="100%"><stop offset="20%" stop-color="#ffc880" stop-opacity="1"></stop><stop offset="80%" stop-color="#fbae3c" stop-opacity="1"></stop></linearGradient></defs><defs><linearGradient id="grad2_2" x1="0%" y1="0%" x2="66.7%" y2="100%"><stop offset="20%" stop-color="#ffc880" stop-opacity="1"></stop><stop offset="80%" stop-color="#ffe3bf" stop-opacity="1"></stop></linearGradient></defs><defs><linearGradient id="grad2_3" x1="0%" y1="0%" x2="66.7%" y2="100%"><stop offset="20%" stop-color="#ffffff" stop-opacity="1"></stop><stop offset="80%" stop-color="#ffe3bf" stop-opacity="1"></stop></linearGradient></defs><g transform="translate(900, 0)"><path d="M0 486.7C-50.9 451.2 -101.8 415.7 -164.9 398.2C-228.1 380.7 -303.6 381.2 -344.2 344.2C-384.8 307.2 -390.4 232.8 -408.4 169.1C-426.3 105.5 -456.5 52.8 -486.7 0L0 0Z" fill="#fff1df"></path><path d="M0 365.1C-38.2 338.4 -76.3 311.8 -123.7 298.6C-171.1 285.5 -227.7 285.9 -258.1 258.1C-288.6 230.4 -292.8 174.6 -306.3 126.9C-319.7 79.2 -342.4 39.6 -365.1 0L0 0Z" fill="#ffd69f"></path><path d="M0 243.4C-25.4 225.6 -50.9 207.9 -82.5 199.1C-114.1 190.3 -151.8 190.6 -172.1 172.1C-192.4 153.6 -195.2 116.4 -204.2 84.6C-213.1 52.8 -228.3 26.4 -243.4 0L0 0Z" fill="#ffbb5f"></path><path d="M0 121.7C-12.7 112.8 -25.4 103.9 -41.2 99.5C-57 95.2 -75.9 95.3 -86 86C-96.2 76.8 -97.6 58.2 -102.1 42.3C-106.6 26.4 -114.1 13.2 -121.7 0L0 0Z" fill="#fbae3c"></path></g><g transform="translate(0, 600)"><path d="M0 -486.7C52.2 -453.8 104.4 -420.9 166.8 -402.8C229.3 -384.7 302 -381.5 344.2 -344.2C386.4 -306.9 398 -235.6 416.7 -172.6C435.3 -109.6 461 -54.8 486.7 0L0 0Z" fill="#fff1df"></path><path d="M0 -365.1C39.1 -340.4 78.3 -315.7 125.1 -302.1C172 -288.5 226.5 -286.1 258.1 -258.1C289.8 -230.2 298.5 -176.7 312.5 -129.4C326.5 -82.2 345.8 -41.1 365.1 0L0 0Z" fill="#ffd69f"></path><path d="M0 -243.4C26.1 -226.9 52.2 -210.5 83.4 -201.4C114.7 -192.4 151 -190.7 172.1 -172.1C193.2 -153.5 199 -117.8 208.3 -86.3C217.7 -54.8 230.5 -27.4 243.4 0L0 0Z" fill="#ffbb5f"></path><path d="M0 -121.7C13 -113.5 26.1 -105.2 41.7 -100.7C57.3 -96.2 75.5 -95.4 86 -86C96.6 -76.7 99.5 -58.9 104.2 -43.1C108.8 -27.4 115.3 -13.7 121.7 0L0 0Z" fill="#fbae3c"></path></g></svg>