<svg id="visual" viewBox="0 0 900 600" width="900" height="600" xmlns="http://www.w3.org/2000/svg" xmlns:xlink="http://www.w3.org/1999/xlink" version="1.1"><rect x="0" y="0" width="900" height="600" fill="#41a5e3"></rect><defs><linearGradient id="grad1_0" x1="33.3%" y1="100%" x2="100%" y2="0%"><stop offset="20%" stop-color="#2e2c6b" stop-opacity="1"></stop><stop offset="80%" stop-color="#2e2c6b" stop-opacity="1"></stop></linearGradient></defs><defs><linearGradient id="grad1_1" x1="33.3%" y1="100%" x2="100%" y2="0%"><stop offset="20%" stop-color="#2e2c6b" stop-opacity="1"></stop><stop offset="80%" stop-color="#41a5e3" stop-opacity="1"></stop></linearGradient></defs><defs><linearGradient id="grad2_0" x1="0%" y1="100%" x2="66.7%" y2="0%"><stop offset="20%" stop-color="#2e2c6b" stop-opacity="1"></stop><stop offset="80%" stop-color="#2e2c6b" stop-opacity="1"></stop></linearGradient></defs><defs><linearGradient id="grad2_1" x1="0%" y1="100%" x2="66.7%" y2="0%"><stop offset="20%" stop-color="#41a5e3" stop-opacity="1"></stop><stop offset="80%" stop-color="#2e2c6b" stop-opacity="1"></stop></linearGradient></defs><g transform="translate(900, 600)"><path d="M-486.7 0C-478.3 -29.5 -469.8 -59.1 -439.2 -77.4C-408.6 -95.8 -355.9 -103 -350.5 -127.6C-345.2 -152.1 -387.2 -194 -401.8 -232C-416.5 -270 -403.7 -304.3 -372.9 -312.9C-342.1 -321.5 -293.2 -304.5 -271.3 -323.3C-249.3 -342 -254.2 -396.5 -233.5 -404.4C-212.8 -412.4 -166.6 -373.9 -139.2 -382.5C-111.8 -391 -103.2 -446.5 -83.2 -471.7C-63.1 -496.9 -31.6 -491.8 0 -486.7L0 0Z" fill="#3567aa"></path><path d="M-243.4 0C-239.1 -14.8 -234.9 -29.5 -219.6 -38.7C-204.3 -47.9 -177.9 -51.5 -175.3 -63.8C-172.6 -76.1 -193.6 -97 -200.9 -116C-208.2 -135 -201.8 -152.1 -186.4 -156.4C-171 -160.8 -146.6 -152.3 -135.6 -161.6C-124.6 -171 -127.1 -198.2 -116.8 -202.2C-106.4 -206.2 -83.3 -187 -69.6 -191.2C-55.9 -195.5 -51.6 -223.3 -41.6 -235.9C-31.6 -248.5 -15.8 -245.9 0 -243.4L0 0Z" fill="#2e2c6b"></path></g><g transform="translate(0, 0)"><path d="M486.7 0C492.9 30.5 499 61 479.4 84.5C459.7 108 414.2 124.5 381.5 138.9C348.8 153.2 329 165.4 323 186.5C317.1 207.6 325 237.6 330.2 277C335.4 316.5 337.9 365.3 308.5 367.7C279.2 370.1 218 326 183.5 317.8C149 309.7 141 337.6 124.8 343C108.6 348.4 84.2 331.4 62 351.6C39.8 371.8 19.9 429.3 0 486.7L0 0Z" fill="#3567aa"></path><path d="M243.4 0C246.4 15.3 249.5 30.5 239.7 42.3C229.8 54 207.1 62.3 190.8 69.4C174.4 76.6 164.5 82.7 161.5 93.2C158.5 103.8 162.5 118.8 165.1 138.5C167.7 158.2 168.9 182.7 154.3 183.9C139.6 185 109 163 91.8 158.9C74.5 154.9 70.5 168.8 62.4 171.5C54.3 174.2 42.1 165.7 31 175.8C19.9 185.9 10 214.6 0 243.4L0 0Z" fill="#2e2c6b"></path></g></svg>