<svg id="visual" viewBox="0 0 900 600" width="900" height="600" xmlns="http://www.w3.org/2000/svg" xmlns:xlink="http://www.w3.org/1999/xlink" version="1.1"><rect x="0" y="0" width="900" height="600" fill="#a0d6ff"></rect><path d="M0 306L11.5 297.2C23 288.3 46 270.7 69 274C92 277.3 115 301.7 138.2 321.7C161.3 341.7 184.7 357.3 207.8 350.5C231 343.7 254 314.3 277 299C300 283.7 323 282.3 346 278.8C369 275.3 392 269.7 415.2 280.2C438.3 290.7 461.7 317.3 484.8 328C508 338.7 531 333.3 554 341.3C577 349.3 600 370.7 623 364C646 357.3 669 322.7 692.2 314.7C715.3 306.7 738.7 325.3 761.8 342.3C785 359.3 808 374.7 831 369.7C854 364.7 877 339.3 888.5 326.7L900 314L900 601L888.5 601C877 601 854 601 831 601C808 601 785 601 761.8 601C738.7 601 715.3 601 692.2 601C669 601 646 601 623 601C600 601 577 601 554 601C531 601 508 601 484.8 601C461.7 601 438.3 601 415.2 601C392 601 369 601 346 601C323 601 300 601 277 601C254 601 231 601 207.8 601C184.7 601 161.3 601 138.2 601C115 601 92 601 69 601C46 601 23 601 11.5 601L0 601Z" fill="#c62368"></path><path d="M0 309L11.5 307.7C23 306.3 46 303.7 69 320.3C92 337 115 373 138.2 388C161.3 403 184.7 397 207.8 396.8C231 396.7 254 402.3 277 389C300 375.7 323 343.3 346 331.2C369 319 392 327 415.2 334.8C438.3 342.7 461.7 350.3 484.8 357C508 363.7 531 369.3 554 358.5C577 347.7 600 320.3 623 311.3C646 302.3 669 311.7 692.2 321.8C715.3 332 738.7 343 761.8 357.7C785 372.3 808 390.7 831 399.2C854 407.7 877 406.3 888.5 405.7L900 405L900 601L888.5 601C877 601 854 601 831 601C808 601 785 601 761.8 601C738.7 601 715.3 601 692.2 601C669 601 646 601 623 601C600 601 577 601 554 601C531 601 508 601 484.8 601C461.7 601 438.3 601 415.2 601C392 601 369 601 346 601C323 601 300 601 277 601C254 601 231 601 207.8 601C184.7 601 161.3 601 138.2 601C115 601 92 601 69 601C46 601 23 601 11.5 601L0 601Z" fill="#d23467"></path><path d="M0 422L11.5 413.3C23 404.7 46 387.3 69 387.3C92 387.3 115 404.7 138.2 414.8C161.3 425 184.7 428 207.8 425.7C231 423.3 254 415.7 277 404.8C300 394 323 380 346 377.2C369 374.3 392 382.7 415.2 398.7C438.3 414.7 461.7 438.3 484.8 442.5C508 446.7 531 431.3 554 415.3C577 399.3 600 382.7 623 387.3C646 392 669 418 692.2 432.8C715.3 447.7 738.7 451.3 761.8 442.8C785 434.3 808 413.7 831 406.3C854 399 877 405 888.5 408L900 411L900 601L888.5 601C877 601 854 601 831 601C808 601 785 601 761.8 601C738.7 601 715.3 601 692.2 601C669 601 646 601 623 601C600 601 577 601 554 601C531 601 508 601 484.8 601C461.7 601 438.3 601 415.2 601C392 601 369 601 346 601C323 601 300 601 277 601C254 601 231 601 207.8 601C184.7 601 161.3 601 138.2 601C115 601 92 601 69 601C46 601 23 601 11.5 601L0 601Z" fill="#de4467"></path><path d="M0 475L11.5 471.5C23 468 46 461 69 463.7C92 466.3 115 478.7 138.2 479.2C161.3 479.7 184.7 468.3 207.8 464.8C231 461.3 254 465.7 277 466.5C300 467.3 323 464.7 346 469.7C369 474.7 392 487.3 415.2 483.5C438.3 479.7 461.7 459.3 484.8 450.8C508 442.3 531 445.7 554 449.8C577 454 600 459 623 464.5C646 470 669 476 692.2 473.2C715.3 470.3 738.7 458.7 761.8 450.8C785 443 808 439 831 431.7C854 424.3 877 413.7 888.5 408.3L900 403L900 601L888.5 601C877 601 854 601 831 601C808 601 785 601 761.8 601C738.7 601 715.3 601 692.2 601C669 601 646 601 623 601C600 601 577 601 554 601C531 601 508 601 484.8 601C461.7 601 438.3 601 415.2 601C392 601 369 601 346 601C323 601 300 601 277 601C254 601 231 601 207.8 601C184.7 601 161.3 601 138.2 601C115 601 92 601 69 601C46 601 23 601 11.5 601L0 601Z" fill="#e85467"></path><path d="M0 504L11.5 502C23 500 46 496 69 493.5C92 491 115 490 138.2 492.7C161.3 495.3 184.7 501.7 207.8 496.8C231 492 254 476 277 468C300 460 323 460 346 461.8C369 463.7 392 467.3 415.2 465.7C438.3 464 461.7 457 484.8 457C508 457 531 464 554 473.2C577 482.3 600 493.7 623 493.5C646 493.3 669 481.7 692.2 477.2C715.3 472.7 738.7 475.3 761.8 474C785 472.7 808 467.3 831 468.8C854 470.3 877 478.7 888.5 482.8L900 487L900 601L888.5 601C877 601 854 601 831 601C808 601 785 601 761.8 601C738.7 601 715.3 601 692.2 601C669 601 646 601 623 601C600 601 577 601 554 601C531 601 508 601 484.8 601C461.7 601 438.3 601 415.2 601C392 601 369 601 346 601C323 601 300 601 277 601C254 601 231 601 207.8 601C184.7 601 161.3 601 138.2 601C115 601 92 601 69 601C46 601 23 601 11.5 601L0 601Z" fill="#f16367"></path><path d="M0 520L11.5 524.5C23 529 46 538 69 537.5C92 537 115 527 138.2 528.2C161.3 529.3 184.7 541.7 207.8 539.5C231 537.3 254 520.7 277 521C300 521.3 323 538.7 346 546.7C369 554.7 392 553.3 415.2 551.3C438.3 549.3 461.7 546.7 484.8 547C508 547.3 531 550.7 554 553.5C577 556.3 600 558.7 623 561.7C646 564.7 669 568.3 692.2 570.5C715.3 572.7 738.7 573.3 761.8 565.5C785 557.7 808 541.3 831 529.7C854 518 877 511 888.5 507.5L900 504L900 601L888.5 601C877 601 854 601 831 601C808 601 785 601 761.8 601C738.7 601 715.3 601 692.2 601C669 601 646 601 623 601C600 601 577 601 554 601C531 601 508 601 484.8 601C461.7 601 438.3 601 415.2 601C392 601 369 601 346 601C323 601 300 601 277 601C254 601 231 601 207.8 601C184.7 601 161.3 601 138.2 601C115 601 92 601 69 601C46 601 23 601 11.5 601L0 601Z" fill="#fa7268"></path></svg>