<svg id="visual" viewBox="0 0 900 600" width="900" height="600" xmlns="http://www.w3.org/2000/svg" xmlns:xlink="http://www.w3.org/1999/xlink" version="1.1"><rect x="0" y="0" width="900" height="600" fill="#d5edff"></rect><path d="M0 406L21.5 403.5C43 401 86 396 128.8 391C171.7 386 214.3 381 257.2 384C300 387 343 398 385.8 409.2C428.7 420.3 471.3 431.7 514.2 427.8C557 424 600 405 642.8 404.8C685.7 404.7 728.3 423.3 771.2 424C814 424.7 857 407.3 878.5 398.7L900 390L900 601L878.5 601C857 601 814 601 771.2 601C728.3 601 685.7 601 642.8 601C600 601 557 601 514.2 601C471.3 601 428.7 601 385.8 601C343 601 300 601 257.2 601C214.3 601 171.7 601 128.8 601C86 601 43 601 21.5 601L0 601Z" fill="#fa7268"></path><path d="M0 414L21.5 421.2C43 428.3 86 442.7 128.8 448.7C171.7 454.7 214.3 452.3 257.2 455C300 457.7 343 465.3 385.8 465.8C428.7 466.3 471.3 459.7 514.2 458C557 456.3 600 459.7 642.8 460.2C685.7 460.7 728.3 458.3 771.2 448.7C814 439 857 422 878.5 413.5L900 405L900 601L878.5 601C857 601 814 601 771.2 601C728.3 601 685.7 601 642.8 601C600 601 557 601 514.2 601C471.3 601 428.7 601 385.8 601C343 601 300 601 257.2 601C214.3 601 171.7 601 128.8 601C86 601 43 601 21.5 601L0 601Z" fill="#ef5f67"></path><path d="M0 459L21.5 460.5C43 462 86 465 128.8 471.8C171.7 478.7 214.3 489.3 257.2 491.3C300 493.3 343 486.7 385.8 478.3C428.7 470 471.3 460 514.2 456.3C557 452.7 600 455.3 642.8 462.3C685.7 469.3 728.3 480.7 771.2 485C814 489.3 857 486.7 878.5 485.3L900 484L900 601L878.5 601C857 601 814 601 771.2 601C728.3 601 685.7 601 642.8 601C600 601 557 601 514.2 601C471.3 601 428.7 601 385.8 601C343 601 300 601 257.2 601C214.3 601 171.7 601 128.8 601C86 601 43 601 21.5 601L0 601Z" fill="#e34c67"></path><path d="M0 482L21.5 491.8C43 501.7 86 521.3 128.8 525.7C171.7 530 214.3 519 257.2 517.2C300 515.3 343 522.7 385.8 522.5C428.7 522.3 471.3 514.7 514.2 516.3C557 518 600 529 642.8 532.8C685.7 536.7 728.3 533.3 771.2 526.3C814 519.3 857 508.7 878.5 503.3L900 498L900 601L878.5 601C857 601 814 601 771.2 601C728.3 601 685.7 601 642.8 601C600 601 557 601 514.2 601C471.3 601 428.7 601 385.8 601C343 601 300 601 257.2 601C214.3 601 171.7 601 128.8 601C86 601 43 601 21.5 601L0 601Z" fill="#d53867"></path><path d="M0 572L21.5 566.5C43 561 86 550 128.8 542.3C171.7 534.7 214.3 530.3 257.2 534.8C300 539.3 343 552.7 385.8 555.3C428.7 558 471.3 550 514.2 546.7C557 543.3 600 544.7 642.8 543.2C685.7 541.7 728.3 537.3 771.2 538.7C814 540 857 547 878.5 550.5L900 554L900 601L878.5 601C857 601 814 601 771.2 601C728.3 601 685.7 601 642.8 601C600 601 557 601 514.2 601C471.3 601 428.7 601 385.8 601C343 601 300 601 257.2 601C214.3 601 171.7 601 128.8 601C86 601 43 601 21.5 601L0 601Z" fill="#c62368"></path></svg>