<svg id="visual" viewBox="0 0 900 600" width="900" height="600" xmlns="http://www.w3.org/2000/svg" xmlns:xlink="http://www.w3.org/1999/xlink" version="1.1"><path d="M0 205L13.7 199C27.3 193 54.7 181 82 179C109.3 177 136.7 185 163.8 188C191 191 218 189 245.2 180C272.3 171 299.7 155 327 169C354.3 183 381.7 227 409 227C436.3 227 463.7 183 491 168C518.3 153 545.7 167 573 171C600.3 175 627.7 169 654.8 182C682 195 709 227 736.2 224C763.3 221 790.7 183 818 176C845.3 169 872.7 193 886.3 205L900 217L900 0L886.3 0C872.7 0 845.3 0 818 0C790.7 0 763.3 0 736.2 0C709 0 682 0 654.8 0C627.7 0 600.3 0 573 0C545.7 0 518.3 0 491 0C463.7 0 436.3 0 409 0C381.7 0 354.3 0 327 0C299.7 0 272.3 0 245.2 0C218 0 191 0 163.8 0C136.7 0 109.3 0 82 0C54.7 0 27.3 0 13.7 0L0 0Z" fill="#6198ff"></path><path d="M0 289L13.7 285C27.3 281 54.7 273 82 273C109.3 273 136.7 281 163.8 287C191 293 218 297 245.2 287C272.3 277 299.7 253 327 259C354.3 265 381.7 301 409 302C436.3 303 463.7 269 491 257C518.3 245 545.7 255 573 254C600.3 253 627.7 241 654.8 251C682 261 709 293 736.2 297C763.3 301 790.7 277 818 269C845.3 261 872.7 269 886.3 273L900 277L900 215L886.3 203C872.7 191 845.3 167 818 174C790.7 181 763.3 219 736.2 222C709 225 682 193 654.8 180C627.7 167 600.3 173 573 169C545.7 165 518.3 151 491 166C463.7 181 436.3 225 409 225C381.7 225 354.3 181 327 167C299.7 153 272.3 169 245.2 178C218 187 191 189 163.8 186C136.7 183 109.3 175 82 177C54.7 179 27.3 191 13.7 197L0 203Z" fill="#3c80ff"></path><path d="M0 379L13.7 385C27.3 391 54.7 403 82 404C109.3 405 136.7 395 163.8 392C191 389 218 393 245.2 403C272.3 413 299.7 429 327 434C354.3 439 381.7 433 409 425C436.3 417 463.7 407 491 406C518.3 405 545.7 413 573 412C600.3 411 627.7 401 654.8 407C682 413 709 435 736.2 432C763.3 429 790.7 401 818 393C845.3 385 872.7 397 886.3 403L900 409L900 275L886.3 271C872.7 267 845.3 259 818 267C790.7 275 763.3 299 736.2 295C709 291 682 259 654.8 249C627.7 239 600.3 251 573 252C545.7 253 518.3 243 491 255C463.7 267 436.3 301 409 300C381.7 299 354.3 263 327 257C299.7 251 272.3 275 245.2 285C218 295 191 291 163.8 285C136.7 279 109.3 271 82 271C54.7 271 27.3 279 13.7 283L0 287Z" fill="#0066ff"></path><path d="M0 469L13.7 467C27.3 465 54.7 461 82 457C109.3 453 136.7 449 163.8 456C191 463 218 481 245.2 498C272.3 515 299.7 531 327 534C354.3 537 381.7 527 409 519C436.3 511 463.7 505 491 503C518.3 501 545.7 503 573 495C600.3 487 627.7 469 654.8 468C682 467 709 483 736.2 487C763.3 491 790.7 483 818 485C845.3 487 872.7 499 886.3 505L900 511L900 407L886.3 401C872.7 395 845.3 383 818 391C790.7 399 763.3 427 736.2 430C709 433 682 411 654.8 405C627.7 399 600.3 409 573 410C545.7 411 518.3 403 491 404C463.7 405 436.3 415 409 423C381.7 431 354.3 437 327 432C299.7 427 272.3 411 245.2 401C218 391 191 387 163.8 390C136.7 393 109.3 403 82 402C54.7 401 27.3 389 13.7 383L0 377Z" fill="#0059dd"></path><path d="M0 601L13.7 601C27.3 601 54.7 601 82 601C109.3 601 136.7 601 163.8 601C191 601 218 601 245.2 601C272.3 601 299.7 601 327 601C354.3 601 381.7 601 409 601C436.3 601 463.7 601 491 601C518.3 601 545.7 601 573 601C600.3 601 627.7 601 654.8 601C682 601 709 601 736.2 601C763.3 601 790.7 601 818 601C845.3 601 872.7 601 886.3 601L900 601L900 509L886.3 503C872.7 497 845.3 485 818 483C790.7 481 763.3 489 736.2 485C709 481 682 465 654.8 466C627.7 467 600.3 485 573 493C545.7 501 518.3 499 491 501C463.7 503 436.3 509 409 517C381.7 525 354.3 535 327 532C299.7 529 272.3 513 245.2 496C218 479 191 461 163.8 454C136.7 447 109.3 451 82 455C54.7 459 27.3 463 13.7 465L0 467Z" fill="#004cbb"></path></svg>